# xmcd
#
# Track frame offsets:
#	150
#	20498
#	42792
#	61907
#	87897
#	109587
#	126341
#	148077
#	167489
#	184244
#	199519
#	223438
#
# Disc length: 3253 seconds
#
# Revision: 1
# Processed by: cddbd v1.5.1PL2 Copyright (c) Steve Scherf et al.
# Submitted via: audiograbber 1.83.01
#
DISCID=ab0cb30c
DTITLE=Jeremiah Houston - Hung The Moon
DYEAR=2002
DGENRE=Country Rock
TTITLE0=I´m Alive
TTITLE1=Go West
TTITLE2=Missing You Tonight
TTITLE3=Better Place Than Life
TTITLE4=Get Your Share
TTITLE5=Here I Go
TTITLE6=Astray
TTITLE7=I´m All Alone
TTITLE8=County Line
TTITLE9=Nothing Stays The Same
TTITLE10=Hung The Moon
TTITLE11=Now I´m Free
EXTD=
EXTT0=
EXTT1=
EXTT2=
EXTT3=
EXTT4=
EXTT5=
EXTT6=
EXTT7=
EXTT8=
EXTT9=
EXTT10=
EXTT11=
PLAYORDER=
